<svg xmlns="http://www.w3.org/2000/svg" version="1.1" viewBox="-5.0 -10.0 110.0 135.0">
 <path d="m95.586 89.633h-3.418v-43.379c2.7578-1.4922 4.6367-4.4102 4.6367-7.7617 0-0.054688-0.003907-0.10547-0.011719-0.15625-0.003907-0.011719-0.003907-0.023438-0.007813-0.039063-0.007812-0.042969-0.015625-0.085937-0.027344-0.12891-0.003906-0.007813-0.003906-0.015625-0.003906-0.023438-0.015625-0.050781-0.035156-0.10156-0.054687-0.14844-0.003907-0.007813-0.007813-0.015625-0.011719-0.023438-0.019531-0.039062-0.039062-0.082031-0.066406-0.11719-0.003906-0.003907-0.007813-0.011719-0.007813-0.019531l-8.6719-13.68c0.023438-0.09375 0.039063-0.19141 0.039063-0.29297v-11.25c0-0.67188-0.54297-1.2188-1.2188-1.2188h-17.125v-3.8125c0-2.457-2-4.457-4.457-4.457h-30.359c-2.457 0-4.457 2-4.457 4.457v3.8125h-17.125c-0.67188 0-1.2188 0.54297-1.2188 1.2188v11.25c0 0.10156 0.011719 0.19922 0.039063 0.29297l-8.6758 13.684c-0.003906 0.007812-0.007812 0.011718-0.011718 0.019531-0.023438 0.035156-0.042969 0.074219-0.058594 0.11328-0.003906 0.007813-0.007812 0.019532-0.011719 0.027344-0.019531 0.046875-0.039062 0.09375-0.054687 0.14453-0.003906 0.007813-0.003906 0.019531-0.007813 0.027344-0.011719 0.039063-0.019531 0.082031-0.027343 0.12109-0.003907 0.015625-0.003907 0.027343-0.007813 0.042969-0.007813 0.046874-0.007813 0.09375-0.011719 0.14453v0.007812c0 3.3516 1.8789 6.2695 4.6367 7.7617v43.379l-3.4141 0.003906c-0.67187 0-1.2188 0.54297-1.2188 1.2188v4.8086c0 0.67188 0.54688 1.2148 1.2188 1.2148h91.176c0.67188 0 1.2188-0.54297 1.2188-1.2188v-4.8086c-0.003906-0.67188-0.55078-1.2148-1.2227-1.2148zm-7.5977-44.762c-3.1016 0-5.6914-2.2266-6.2617-5.1641h12.523c-0.56641 2.9414-3.1602 5.1641-6.2617 5.1641zm-73.633-19.789h10.223l-5.7422 12.191h-12.211zm71.289 0 7.7305 12.191h-12.211l-5.7422-12.191zm-12.914 0 5.7422 12.191h-12.395l-3.9727-12.191zm-13.184 0 3.9727 12.191h-12.301v-12.191zm-10.766 12.195h-12.301l3.9727-12.191h8.332zm-14.859 0h-12.395l5.7422-12.191h10.621zm-0.45312 2.4336c-0.57031 2.9375-3.1602 5.1641-6.2617 5.1641-3.1016 0-5.6914-2.2266-6.2617-5.1641zm15.195 0c-0.57031 2.9375-3.1602 5.1641-6.2617 5.1641-3.1016 0-5.6914-2.2266-6.2617-5.1641zm15.195 0c-0.57031 2.9375-3.1602 5.1641-6.2617 5.1641-3.1016 0-5.6914-2.2266-6.2617-5.1641zm15.195 0c-0.57031 2.9375-3.1602 5.1641-6.2617 5.1641-3.1016 0-5.6914-2.2266-6.2617-5.1641zm-46.258-32.129c0-1.1172 0.90625-2.0234 2.0234-2.0234h30.359c1.1172 0 2.0234 0.90625 2.0234 2.0234v7.4141c0 1.1172-0.90625 2.0234-2.0234 2.0234l-30.359 0.003907c-1.1172 0-2.0234-0.90625-2.0234-2.0234zm-18.34 6.25h15.906v1.168c0 2.457 2 4.457 4.457 4.457h30.359c2.457 0 4.457-2 4.457-4.457v-1.168h15.906v8.8164h-71.086zm-8.7109 25.879h12.523c-0.57031 2.9375-3.1602 5.1641-6.2617 5.1641-3.0977-0.003906-5.6914-2.2266-6.2617-5.1641zm4.5234 7.4219c0.5625 0.11328 1.1484 0.17578 1.7422 0.17578 3.2305 0 6.0625-1.7461 7.5977-4.3477 1.5352 2.6016 4.3672 4.3477 7.5977 4.3477s6.0625-1.7461 7.5977-4.3477c1.5352 2.6016 4.3672 4.3477 7.5977 4.3477 3.2305 0 6.0625-1.7461 7.5977-4.3477 1.5352 2.6016 4.3672 4.3477 7.5977 4.3477 3.2305 0 6.0625-1.7461 7.5977-4.3477 1.5352 2.6016 4.3672 4.3477 7.5977 4.3477s6.0625-1.7461 7.5977-4.3477c1.5352 2.6016 4.3672 4.3477 7.5977 4.3477 0.59766 0 1.1797-0.058594 1.7422-0.17578v42.496h-3.2656v-32.645c0-0.67188-0.54297-1.2188-1.2188-1.2188h-22.414c-0.67188 0-1.2188 0.54297-1.2188 1.2188v32.648h-51.344zm73.762 47.309h-19.98v-36.238l19.98-0.003906zm-78.402-2.375h55.984v2.3711l-55.984 0.003906zm88.742 2.375h-7.9023v-2.3711h7.9023zm-14.391-15.234v-5.7734c0-0.67188 0.54297-1.2188 1.2188-1.2188 0.67188 0 1.2188 0.54297 1.2188 1.2188v5.7734c0 0.67188-0.54297 1.2188-1.2188 1.2188s-1.2188-0.54688-1.2188-1.2188zm-47.938-13.242c0-1.5273 1.2188-2.7852 2.9336-3.1953v-0.10156c0-0.67188 0.54297-1.2188 1.2188-1.2188 0.67188 0 1.2188 0.54297 1.2188 1.2188v0.10156c1.0469 0.25391 1.9375 0.82812 2.457 1.6211 0.36719 0.5625 0.21094 1.3164-0.35156 1.6836-0.5625 0.36719-1.3164 0.21094-1.6836-0.35156-0.21094-0.32031-0.80859-0.66406-1.6367-0.66406-1.0312 0-1.7188 0.53906-1.7188 0.89844 0 0.35547 0.68359 0.89844 1.7188 0.89844 2.3281 0 4.1523 1.4648 4.1523 3.332 0 1.5273-1.2188 2.7852-2.9336 3.1953v0.10156c0 0.67188-0.54297 1.2188-1.2188 1.2188-0.67188 0-1.2188-0.54297-1.2188-1.2188v-0.10156c-1.0469-0.25391-1.9375-0.82812-2.457-1.6211-0.36719-0.5625-0.21094-1.3164 0.35156-1.6836s1.3164-0.21094 1.6836 0.35156c0.21094 0.32031 0.80859 0.66406 1.6367 0.66406 1.0312 0 1.7188-0.53906 1.7188-0.89844 0-0.35547-0.68359-0.89844-1.7188-0.89844-2.3281 0-4.1523-1.4648-4.1523-3.332zm24.66-10.199h-41.02c-1.1875 0-2.1523 0.96484-2.1523 2.1523v20.324c0 1.1875 0.96484 2.1523 2.1523 2.1523h41.02c1.1875 0 2.1523-0.96484 2.1523-2.1523v-20.324c0-1.1875-0.96484-2.1523-2.1523-2.1523zm-0.28516 22.191h-40.449v-19.758h40.449zm-16.664-16.84c0-0.67188 0.54297-1.2188 1.2188-1.2188h9.2539c0.67188 0 1.2188 0.54297 1.2188 1.2188 0 1.1367 0.92188 2.0586 2.0586 2.0586 0.67188 0 1.2188 0.54297 1.2188 1.2188v7.3711c0 0.67188-0.54297 1.2188-1.2188 1.2188-1.1328 0-2.0586 0.92188-2.0586 2.0586 0 0.67188-0.54297 1.2188-1.2188 1.2188h-9.2539c-0.67188 0-1.2188-0.54297-1.2188-1.2188 0-0.67188 0.54297-1.2188 1.2188-1.2188h8.207c0.42187-1.5 1.6055-2.6836 3.1055-3.1055v-5.2734c-1.5-0.42187-2.6836-1.6055-3.1055-3.1055h-8.207c-0.67188-0.003906-1.2188-0.55078-1.2188-1.2227zm-22.086 10.648v-7.3711c0-0.67188 0.54297-1.2188 1.2188-1.2188 1.1328 0 2.0586-0.92188 2.0586-2.0586 0-0.67188 0.54297-1.2188 1.2188-1.2188h9.2539c0.67188 0 1.2188 0.54297 1.2188 1.2188 0 0.67187-0.54297 1.2188-1.2188 1.2188h-8.207c-0.42188 1.5-1.6055 2.6836-3.1055 3.1055v5.2734c1.5 0.42188 2.6836 1.6055 3.1055 3.1055h8.207c0.67188 0 1.2188 0.54297 1.2188 1.2188 0 0.67188-0.54297 1.2188-1.2188 1.2188h-9.2539c-0.67187 0-1.2188-0.54297-1.2188-1.2188 0-1.1367-0.92187-2.0586-2.0586-2.0586-0.67188 0-1.2188-0.54297-1.2188-1.2148z"/>
<text x="0.0" y="117.5" font-size="5.0" font-weight="bold" font-family="Arbeit Regular, Helvetica, Arial-Unicode, Arial, Sans-serif" fill="#000000">Created by Dahlia nur aini</text><text x="0.0" y="122.5" font-size="5.0" font-weight="bold" font-family="Arbeit Regular, Helvetica, Arial-Unicode, Arial, Sans-serif" fill="#000000">from Noun Project</text></svg>